<?xml version="1.0" standalone="no"?>
<!DOCTYPE svg PUBLIC "-//W3C//DTD SVG 20010904//EN"
 "http://www.w3.org/TR/2001/REC-SVG-20010904/DTD/svg10.dtd">
<svg version="1.0" xmlns="http://www.w3.org/2000/svg"
 width="220.000000pt" height="220.000000pt" viewBox="0 0 220.000000 220.000000"
 preserveAspectRatio="xMidYMid meet">
<metadata>
Created by potrace 1.14, written by Peter Selinger 2001-2017
</metadata>
<g transform="translate(0.000000,220.000000) scale(0.100000,-0.100000)"
fill="#000000" stroke="none">
<path d="M0 1896 c0 -257 2 -307 15 -320 8 -8 15 -18 15 -23 0 -4 7 -21 15
-37 9 -16 13 -36 10 -45 -3 -9 7 -29 23 -46 16 -17 32 -42 35 -56 4 -14 18
-31 32 -37 14 -6 25 -16 25 -22 0 -13 41 -13 75 0 15 6 51 34 80 63 101 99
162 152 186 158 13 4 51 8 84 9 81 2 112 22 150 97 25 51 34 61 55 61 83 0
109 6 160 35 46 25 67 31 130 33 41 1 83 3 93 3 12 1 17 10 18 34 1 17 4 43 8
57 7 23 8 22 15 -15 16 -87 67 -115 117 -64 16 16 31 39 33 52 22 107 51 212
79 283 l34 84 -743 0 -744 0 0 -304z"/>
<path d="M1840 2190 c0 -5 11 -12 24 -16 14 -3 53 -38 87 -77 34 -40 83 -90
108 -112 25 -22 50 -47 55 -55 16 -25 64 -70 75 -70 8 0 11 55 11 170 l0 170
-180 0 c-111 0 -180 -4 -180 -10z"/>
<path d="M1752 2148 c3 -7 18 -14 34 -16 l29 -2 -25 14 c-31 19 -43 20 -38 4z"/>
<path d="M1800 2111 c0 -5 7 -17 15 -25 13 -12 14 -20 5 -36 -8 -16 -8 -24 3
-35 13 -12 17 -11 35 6 27 25 42 24 42 -2 0 -12 23 -44 53 -75 52 -54 77 -67
77 -39 0 8 -4 15 -10 15 -5 0 -10 6 -10 14 0 8 -6 21 -12 28 -7 7 -20 26 -28
42 -8 16 -29 35 -46 42 -30 13 -64 44 -48 44 5 0 -4 7 -20 15 -32 17 -56 19
-56 6z"/>
<path d="M1678 1646 c-48 -13 -97 -30 -110 -38 -13 -8 -47 -29 -76 -48 -85
-55 -129 -142 -111 -226 12 -64 45 -83 107 -66 20 6 70 20 110 32 71 20 235
97 297 139 17 12 41 21 55 21 43 0 70 26 64 60 -5 24 0 35 30 66 32 33 53 70
44 79 -1 2 -28 -3 -58 -11 -71 -18 -158 -18 -203 1 -45 19 -44 19 -149 -9z
m-113 -310 c0 -22 -14 -29 -34 -17 -19 12 -6 43 16 39 10 -2 18 -12 18 -22z"/>
<path d="M1063 1487 c-30 -16 -34 -39 -12 -84 10 -21 20 -50 24 -65 4 -21 11
-28 28 -28 34 0 83 35 110 77 23 36 24 38 6 45 -11 4 -19 12 -19 18 0 10 -59
38 -94 44 -12 2 -31 -1 -43 -7z"/>
<path d="M1176 1217 c-10 -7 -31 -24 -47 -38 -16 -15 -48 -36 -71 -47 -78 -37
-168 -140 -168 -192 0 -9 127 -5 242 6 63 6 67 8 73 34 4 18 19 34 46 49 22
13 44 33 49 44 4 12 20 39 34 60 32 47 33 60 1 81 -29 19 -130 21 -159 3z"/>
<path d="M617 1203 c-4 -3 -7 -15 -7 -25 0 -20 23 -23 79 -12 40 8 35 29 -7
30 -17 0 -35 3 -38 7 -9 9 -19 9 -27 0z"/>
<path d="M330 934 c-58 -15 -155 -70 -203 -113 -26 -24 -101 -119 -103 -131 0
-3 -6 -18 -12 -33 -18 -44 -15 -177 4 -198 16 -17 18 -17 53 0 20 11 50 32 68
47 74 66 102 83 178 109 112 39 276 118 303 148 27 28 24 48 -11 87 -39 42
-87 72 -141 86 -62 17 -67 17 -136 -2z m-90 -239 c22 -24 23 -27 8 -42 -16
-15 -19 -15 -42 1 -34 22 -35 66 -1 66 6 0 22 -11 35 -25z"/>
<path d="M1232 878 c-7 -7 -12 -24 -12 -39 0 -45 -38 -119 -61 -119 -12 0 -17
-4 -14 -11 4 -6 -2 -19 -14 -30 -12 -11 -21 -30 -22 -42 0 -21 -1 -21 -8 -2
-8 19 -8 19 -20 -3 -8 -14 -10 -38 -6 -60 5 -34 2 -41 -34 -77 -23 -23 -45
-58 -53 -82 -6 -23 -15 -40 -19 -38 -9 6 -42 -32 -47 -53 -2 -9 -7 -39 -11
-67 -4 -27 -9 -54 -11 -60 -6 -22 1 -35 18 -36 10 0 12 -3 5 -6 -15 -5 -18
-120 -5 -141 6 -9 33 -12 98 -10 88 3 89 3 86 28 -1 14 -7 35 -13 47 -9 17 -8
26 5 44 23 34 21 114 -5 150 -21 30 -20 81 3 95 5 3 18 26 29 51 10 24 34 63
52 86 18 23 39 54 46 69 8 15 25 36 39 45 13 10 43 32 66 49 83 61 118 76 186
79 92 5 191 22 203 34 13 13 44 14 49 2 6 -17 117 -51 147 -45 25 5 30 3 33
-17 2 -16 17 -32 46 -47 23 -13 42 -30 42 -38 0 -8 15 -30 33 -48 25 -27 43
-35 85 -40 l52 -6 0 110 0 111 -35 15 c-19 8 -35 18 -35 22 0 9 -139 46 -147
38 -8 -8 -33 21 -33 39 0 14 -6 16 -27 10 -16 -4 -84 -9 -154 -11 -80 -2 -138
-9 -160 -18 -26 -11 -68 -14 -162 -12 -70 2 -130 6 -134 10 -3 3 -13 6 -21 6
-9 0 -23 7 -32 15 -13 11 -19 12 -28 3z"/>
<path d="M1165 740 c-3 -5 -1 -10 4 -10 6 0 11 5 11 10 0 6 -2 10 -4 10 -3 0
-8 -4 -11 -10z"/>
<path d="M2087 104 c-3 -3 -3 -12 0 -20 3 -9 -1 -14 -12 -14 -10 0 -13 5 -9
12 5 8 -2 9 -26 5 -18 -4 -49 -7 -69 -8 -29 -1 -43 -8 -70 -40 l-33 -39 122 0
121 0 -5 51 c-6 55 -9 63 -19 53z"/>
</g>
</svg>
